<svg xmlns="http://www.w3.org/2000/svg" width="23" height="24">
  <path fill-rule="evenodd" fill="#FFF" d="M16.367 22.189c1.902 1.626 4.529 2.114 5.805.629 1.276-1.483.755-3.628-1.044-6.013C19.328 14.592 9.641 5.44 7.497 2.899 5.352.754 3.485.268 1.587 1.889.31 3.51.141 5.618 1.664 7.417c3.218 3.839 11.521 12.073 14.703 14.772z"/>
  <path fill-rule="evenodd" fill="#FFF" d="M21.455 7.867c2.355-1.903 2.113-4.529 1.385-5.257-2.24-1.825-4.556-1.304-6.13.496C13.857 4.905 4.309 14.592 2.164 16.737.19 18.881.466 20.748 1.155 22.646c1.621 1.898 3.729 2.274 5.528-.076 3.839-3.219 12.073-11.08 14.772-14.703z"/>
</svg>