<svg xmlns="http://www.w3.org/2000/svg" width="30" height="33">
  <path fill-rule="evenodd" fill="#FFF" d="M24.877 8.82c2.495-.934 4.697-2.446 4.55-4.398-.147-1.952-2.153-3.221-4.99-3.514C21.599.616 7.998.713 4.965.713 1.931.713.268 1.689.72 4.178c-.597 2.488.967 3.659 3.63 4.152 4.9.142 16.368.093 20.527.49zM24.877 20.82c2.495-.934 4.697-2.447 4.55-4.398-.147-1.952-2.153-3.221-4.99-3.514-2.838-.293-16.439-.195-19.472-.195-3.034 0-4.697.976-4.245 3.465-.597 2.488.967 3.66 3.63 4.152 4.9.142 16.368.093 20.527.49zM24.877 32.81c2.495-.924 4.697-2.437 4.55-4.389-.147-1.951-2.153-3.22-4.99-3.513-2.838-.292-16.439-.195-19.472-.195-3.034 0-4.697.976-4.245 3.465-.597 2.488.967 3.659 3.63 4.152 4.9.142 16.368.093 20.527.48z"/>
</svg>