<?xml version="1.0" encoding="UTF-8"?> <svg xmlns="http://www.w3.org/2000/svg" viewBox="0 0 163.32 224.89"><path fill="#fff" d="M154.47 0c-.71.09-1.38.07-1.97.27-6.75 2.34-13.48 4.73-20.23 7.06-7.87 2.72-15.75 5.43-23.66 8.04-.92.3-2.15.14-3.09-.22-4.27-1.62-8.45-2.02-12.26.96-4 3.13-6.03 7.59-3.9 12.94 1.08 2.72 3.31 4.49 5.35 6.47 2.66 2.59 4.35 5.72 3.96 9.64-.21 2.14-1.2 3.9-2.61 5.46-2 2.2-4.29 3.98-7.04 5.06 1.08-1.58 2.36-3.03 3.17-4.7 1.63-3.4 1.04-6.85-.28-10.23-2.57-6.63-7.69-10.85-13.66-14.17-7.19-4-15.1-5.37-23.19-5.94-9.18-.65-17.72-3.05-24.88-9.19-.41-.35-.96-.54-1.45-.8-.15.1-.29.21-.44.31.7 1.94 1.33 3.9 2.11 5.8 2.82 6.81 5.95 13.47 9.84 19.74 3.44 5.54 7.46 10.57 12.56 14.71 4.78 3.89 9.88 7.18 15.92 9.01-9.26 1.9-18.46 3.81-25.97 10.16.52.35 1.01.48 1.5.58 2.36.44 4.87.5 7.04 1.39 4.26 1.76 8.34 3.97 12.47 6.03 1.13.56.26 1.04-.23 1.28-2.35 1.17-4.8 1.22-7.21.29-1.44-.56-2.22-.17-2.72 1.19-1.88 5.11-3.79 10.2-5.62 15.33-.18.5.19 1.2.38 2.19.66-.68.98-.91 1.17-1.21 2.69-4.32 5.83-8.26 9.95-11.29 4.32-3.17 8.81-5.69 14.61-4.87 5.69.8 11.36.39 16.59-2.39 6.05-3.22 10.9-7.71 13.62-14.06 3.51-8.21 3.6-16.75 1.66-25.34 1.79 2.56 3.59 5.15 5.41 7.73 2.99 4.22 6.75 7.64 11.27 10.12 6.23 3.43 12.7 3.94 19.22.76 3.49-1.7 6.39-4.24 8.78-7.26 1.9-2.4 3.48-5.04 5.37-7.81-16.45-6.32-32.53-12.5-48.75-18.73 5.13-2.44 10.13-4.76 15.08-7.18 6.93-3.39 13.81-6.87 20.73-10.28 3.26-1.61 6.57-3.13 9.82-4.75.77-.37 1.94-.6 1.58-2.1m-51.72 21.18c-1.01.13-1.93-.58-2.06-1.59-.13-1.01.58-1.93 1.59-2.06 1.01-.13 1.93.58 2.06 1.59a1.83 1.83 0 01-1.59 2.06m50.29 87.44c-.58-.34-1.17-.51-1.79-.48-2.22.09-3.55 2.36-5.22 5.23-1.99 3.41-4.24 7.27-7.83 7.41-.53.02-1.08-.04-1.66-.17-.67-.16-.9-.43-1.02-.65-.91-1.62.54-6.08 1.95-10.39 2.96-9.12 7.02-21.6-3.61-27.7-2.4-1.38-4.66-2.03-6.72-1.95-2.77.11-5.18 1.56-6.98 4.19-5.56 8.12-4.86 27.12-.77 39.09 3.2 9.34 8.06 13.95 14.44 13.7 3.93-.16 7.66-2.22 10.13-3.75 4.93-3.07 12.21-12.36 12.15-18.9-.03-2.5-1.09-4.45-3.07-5.63m-22.16-17.35c.47.18.75.47.92.99.97 2.86-1.83 9.6-4.67 14.92-.9-5.84-1.28-12.99.63-15.48.39-.51.83-.74 1.43-.77.47-.02 1.04.09 1.69.34M97.41 200.65c-.2-.89-.4-1.77-.55-2.74-.76-5.19-1.48-10.26-1.99-15.37-.3-3.04-.54-5.73-.74-8.1-1.26-14.32-1.64-18.64-11.15-19.12-.22-.01-.44-.01-.65-.01-1.54.06-2.79.64-3.7 1.73-2.78 3.32-1.81 10.62-.19 22.73.44 3.3.92 6.91 1.37 10.79l.51 4.48c.34 3.05.68 6.1 1.07 9.15.06.5.11 1.04.17 1.6.33 3.33.88 10.96 3.63 13.43.32.29.82.68 1.64.91.9.38 2.99 1.29 5.2 1.2 1.75-.07 3.24-.76 4.32-1.99 1.81-2.05 2.47-5.51 2.02-10.54-.17-1.86-.64-6.77-.96-8.15m38.12-9.44c-.72-1.48-1.93-2.51-3.49-3-.73-.23-1.44-.33-2.1-.3-3.67.15-4.97 3.77-6.12 6.97-1.11 3.09-1.96 5.13-3.64 5.19-1.12.04-2.34-.57-3.18-1.6-.79-.97-1.33-2.34-1.54-3.96-.3-2.24-.98-7.48.69-9.86l3.57-5.1c.43-.62.91-1.24 1.38-1.86 1.11-1.44 2.25-2.94 3.06-4.61.85-1.74 1.51-3.58 2.16-5.36l.18-.49c1.16-3.19 2.41-6.91 2.58-10.8.13-3.29-.78-5.97-2.73-7.96-2.44-2.5-6.42-3.77-11.5-3.67l-.29.01c-6.05.24-10.96 4.74-13.46 12.34-2.81 8.57-1.93 17.13-1.08 25.41l.3 2.92c.07.71.13 1.48.2 2.29.59 7.03 1.4 16.65 7.42 20.85 3.62 2.53 8.37 3.94 12.7 3.76 2.16-.09 4.16-.56 5.92-1.39 5.16-2.45 7.3-7.16 8.9-11.38.84-2.2 1.37-5.74.07-8.4M114.8 157.2c1.23 0 1.5.48 1.61.68 1.53 2.75-2.27 11.76-6.31 19.1-.68-6.1-.93-14.9 1.85-18.39.72-.9 1.56-1.34 2.66-1.38m32.33-11.47c.26-.01 1.24.1 2.91 1.93.93 1.01 1.49 2.08 2.03 3.11 1.02 1.95 2.18 4.16 5.53 4.03.53-.02 1.13-.11 1.82-.27 2.93-.69 4.52-3.91 3.97-8.02-.81-5.94-5.68-11.79-13.41-11.48-.7.03-1.44.11-2.21.25-9.11 1.62-13.78 8.08-14.38 13.77-.56 5.31 2.26 9.89 7.36 11.96 3.05 1.24 5.44 3.39 6.73 6.04 1.29 2.66 1.05 4.75-.84 7.44-.7.99-1.5 1.9-2.34 2.87-.67.78-1.35 1.55-1.98 2.37-.61.79-1.17 1.61-1.75 2.47-1.41 2.09-1.77 3.79-1.29 5.96.11.68.23 1.37.46 2.01.74 2.13 2.6 3.72 4.73 4.06.33.05.66.07.98.06 2.58-.1 4.39-2.12 5.85-3.74.24-.27.48-.54.71-.78 2.13-2.24 4.01-5.02 5.92-8.74 3.36-6.54 4.17-11.84 2.5-16.19-2.01-5.24-7.25-7.75-11.01-9.17-3.18-1.21-4.04-5.23-3.64-7.71.16-1.09.65-2.2 1.35-2.23M17.3 162.89c-2.62-1.61-5.09-3.14-5.37-4.32-.03-.12-.1-.44.3-1.08.41-.66.91-.96 1.67-.99 2.29-.09 5.99 2.22 8.96 4.07 3.15 1.97 5.63 3.52 7.63 3.43 1.06-.04 1.72-.52 2.09-.92 1.71-1.83 2.23-4.02 1.51-6.33-1.63-5.19-9.76-10.17-16.33-11.57-2.2-.47-4.41-.67-6.41-.59-6.65.27-10.76 3.6-11.29 9.16-.42 4.47.74 13.01 13.28 19.98 9.02 5.02 14.17 14.45 13.24 18.35-.19.81-.68 1.74-2.74 1.82-1.98.08-3.37-2.39-5.26-6.18-1.61-3.21-3.27-6.53-6.11-8.29-1.27-.78-2.37-1.14-3.38-1.1-1.21.05-2.23.71-2.78 1.81-1.6 3.22.72 10.29 5.79 17.59 4.85 6.99 10.32 10.89 15 10.7 2.12-.08 3.97-1.03 5.36-2.74 3.04-3.74 3.75-11.02 2.05-21.05-2.09-12.43-11.19-18.04-17.21-21.75m56.01 42.5l-.29-.57c-2.29-4.6-5.68-8.9-8.67-12.7-3.14-4-6.11-7.78-6.27-10.11-.11-1.64 3.74-6.11 6.56-9.38 5.35-6.22 10.41-12.09 6.61-15.37-1.3-1.12-2.74-1.66-4.29-1.6-4.59.18-8.89 5.71-12.56 10.87-2.31 3.25-3.81 4.96-4.23 5.15-.09-.07-.89-.83-1.42-5.88-.42-4.04-.28-6.29-.18-7.79.21-3.18-.18-3.85-3.48-5.93-.79-.49-1.57-.73-2.32-.7-.63.03-1.54.25-2.36 1.19-3.63 4.14-2.41 21.04-.58 41.05l.14 1.5c.27 2.97.6 5.94.96 8.91.07.55.09 1.27.11 2.05.08 2.45.18 5.22 1.37 6.87l.27.37.42.17c1.71.72 3.52 1.17 5.36 1.33.22.02.45.03.68.02.83-.03 1.5-.31 1.99-.83 1.23-1.3.73-3.65.29-5.72-.09-.4-.16-.76-.2-1.01-.26-1.89-.52-3.84-.63-6.01-.07-1.16-.26-4.67.69-5.72.11-.12.21-.19.49-.2h.01c1.72.01 4.02 5.37 4.77 7.12.22.5.4.94.56 1.27 1.11 2.36 2.15 4.76 3.18 7.15 0 0 2.28 5.17 2.62 5.97.37.87.84 1.54 1.25 2.21.55.92 2.24 2.39 2.24 2.39l.07.06c.35.31.72.54 1.04.72 1.37.79 2.82 1.48 4.29 2.04.86.33 1.81.64 2.84.61h.09c1.43-.06 2.58-.71 3.24-1.83 1.61-2.75.18-8.2-4.66-17.67m-30-118.12c-1.79-1.98-4.54-2.91-8.18-2.76-.34.01-.68.04-1.04.07-7.72.68-16.51 12.9-19.93 18.12-6.11 9.33-11.9 21.75-10.15 26.98 2.33 6.98 4.99 9.04 15.79 12.25 5.11 1.52 8.9 2.43 12.01 2.31 5.56-.22 8.64-3.62 10.61-11.72 2.12-8.71-1.63-13.76-4.11-17.09-1.01-1.36-1.96-2.64-1.87-3.39.08-.65.52-.96 2.1-1.74 2.35-1.17 5.89-2.94 6.78-9.2.67-4.67 1.04-10.46-2.01-13.83m-24.82 37.11c.53-.98 1.11-2.06 1.6-3.23.63-1.51 1.43-1.74 2.14-1.77 1.14-.05 3.37.52 7.52 3.46 1.53 1.09 3.24 2.78 2.69 4.64-.62 2.08-3.77 3.81-7.18 3.95-1.47.06-2.92-.18-4.21-.69-2.83-1.12-3.67-2.01-3.87-2.57-.3-.82.44-2.2 1.31-3.79M34.42 94.4c1.4-.06 2.12 1.94 2.37 2.8.29 1.02-.41 2.19-.85 2.81-1.74 2.41-5.38 4.53-7.96 4.64-.29.01-.55 0-.79-.05-.36-.06-.4-.16-.42-.21-.29-.81.55-3.53 3.28-6.81 1.65-1.98 3.24-3.14 4.37-3.18"></path><path fill="#fff" d="M77.09 142.42c-.34-5.91-11.67-4.99-13.69-5.22-1.97-.22-6.09-.37-6.6-4.26-.52-4.03 5.97-33.09 6.17-36.02.14-2.06-.14-3.33-.92-4.14a2.54 2.54 0 00-1.94-.75c-1.35.05-2.65 1.03-4.03 2.07l-.55.41c-6.98 8.03-10.27 32.15-10.84 36.38-1.63 12.06-2.3 17.05 9.98 19.07 2.8.46 7.14.58 7.14.58 3.1-.12 11.35-1.38 12.81-2.66 2.2-1.93 2.61-3.09 2.47-5.46"></path><path fill="#fff" d="M112.91 109c-.46-5.1-.89-8.96-1.41-13.76l-.23-3.22c-.05-.46-.09-.98-.14-1.53-.32-3.84-.84-10.85-4.51-10.7-.22.01-.44.04-.67.1-2.3.56-2.55.76-5.65 3.2-2.09 1.64-2.22 8.59-2 13.29.15 3.04.33 5.67.52 8.35.12 1.73.24 3.47.36 5.36l.25 4.04c.67 10.61 1.16 18.27-1.32 18.76-.46.09-.88.15-1.29.16-5.01.2-6-6.73-7.77-22.42-.35-3.14-.81-8.32-1.28-12.04l-.12-1.01c-.37-3.23-.94-9.41-5.08-10.27l-.46-.06-.2.01c-1.7.07-3.57 1.68-5.71 4.92-2.61 3.96-3.09 10.26-2.52 15.54.27 2.44.5 4.81.72 7.08 1.92 19.54 3.3 33.66 20.55 32.97.61-.02 1.25-.07 1.9-.13 12.33-1.19 18.19-15.28 16.06-38.64"></path></svg> 